<?xml version="1.0" encoding="UTF-8"?>
<svg version="1.1" xmlns="http://www.w3.org/2000/svg" width="322" height="206">
<path d="M0 0 C106.26 0 212.52 0 322 0 C322 67.98 322 135.96 322 206 C215.74 206 109.48 206 0 206 C0 138.02 0 70.04 0 0 Z " fill="#FEFEFE" transform="translate(0,0)"/>
<path d="M0 0 C4.79543112 0.52093225 7.92813291 1.88728116 12 4.4375 C18.12808395 8.25957319 23.18196006 10.68699877 30.4296875 9.6796875 C36.54603241 8.06229538 42.35972865 4.82227317 47.546875 1.2421875 C50 0 50 0 52.47851562 0.15283203 C55.71936721 1.2416929 56.24111048 2.31337823 57.796875 5.3125 C58.51629272 6.66698242 58.51629272 6.66698242 59.25024414 8.04882812 C59.74516357 9.02271484 60.24008301 9.99660156 60.75 11 C61.27005615 11.98935547 61.7901123 12.97871094 62.32592773 13.99804688 C63.38771153 16.02098844 64.44232508 18.04770962 65.48974609 20.078125 C66.86566533 22.74010389 68.26331149 25.38853026 69.67578125 28.03125 C71.80266277 32.01133963 73.91481665 35.99786466 76 40 C76.57621094 41.1034375 77.15242187 42.206875 77.74609375 43.34375 C79 46 79 46 79 48 C80.76537109 47.96519531 80.76537109 47.96519531 82.56640625 47.9296875 C95.81416848 47.75573248 108.82536439 48.65169761 122 50 C122 50.66 122 51.32 122 52 C83.49152077 70.12756432 83.49152077 70.12756432 65 76 C63.18371512 76.69857111 61.37064775 77.40562939 59.5625 78.125 C31.71175176 88.26055711 9.14112297 83.98816952 -18 74 C-18.73911621 73.72881348 -19.47823242 73.45762695 -20.23974609 73.17822266 C-36.57929409 67.0925926 -52.26583413 59.47924678 -68 52 C-68 51.34 -68 50.68 -68 50 C-39.06736359 47.61223194 -39.06736359 47.61223194 -25 48 C-24.76539063 47.18273437 -24.53078125 46.36546875 -24.2890625 45.5234375 C-22.73199668 41.2674576 -20.62928424 37.54405812 -18.375 33.625 C-14.97137449 27.61874746 -11.72230752 21.57592173 -8.6875 15.375 C-6.07195171 10.03844826 -3.29883992 4.94825987 0 0 Z " fill="#030404" transform="translate(119,35)"/>
<path d="M0 0 C3.53571429 0.53571429 3.53571429 0.53571429 5 2 C6.5617319 2.0794101 8.12452034 2.13843786 9.6875 2.1875 C14.53143958 2.58376022 14.53143958 2.58376022 16.57421875 4.3984375 C17.00347656 4.94757813 17.43273437 5.49671875 17.875 6.0625 C19.85024223 8.40352783 20.70680003 8.94736382 23.78515625 9.5 C28.51027333 9.59368262 31.98877424 9.45322691 36.35546875 7.49609375 C40.58254291 5.76086395 43.8619788 5.4613382 48.375 5.5 C49.15302979 5.50499512 49.93105957 5.50999023 50.73266602 5.51513672 C67.29569063 5.99977774 81.86971189 12.78517724 94.00390625 23.8515625 C95.85808486 25.84725377 96.95562604 27.50479302 98 30 C98.66 30 99.32 30 100 30 C100.27328125 29.40703125 100.5465625 28.8140625 100.828125 28.203125 C106.35189444 17.81843845 119.37589041 11.90343947 130.125 8.5625 C132.0773426 8.01964165 134.03508556 7.49542714 136 7 C136.63236572 6.8249292 137.26473145 6.6498584 137.91625977 6.46948242 C141.51835488 5.65790317 145.13407641 5.77390527 148.8125 5.75 C149.59431641 5.729375 150.37613281 5.70875 151.18164062 5.6875 C156.52690829 5.65177557 160.08312364 6.73916678 165 9 C169.09123519 9.66553511 172.91309131 9.73369469 177 9 C178.83635067 7.6258044 180.02162885 6.19465414 181.4296875 4.39453125 C184.14275942 1.98516141 187.33340915 2.26666529 190.828125 2.203125 C193.21228136 2.21317828 193.21228136 2.21317828 195 0 C198.53571429 0.53571429 198.53571429 0.53571429 200 2 C200.04063832 3.66617115 200.042721 5.33388095 200 7 C197.625 7.625 197.625 7.625 195 8 C194.01 7.01 194.01 7.01 193 6 C189.92852822 5.36113387 187.07164105 5.36667195 184 6 C182.65352807 7.53882506 181.30921789 9.08052637 180.015625 10.6640625 C175.43791198 13.69812811 168.31078304 12.36486296 163 12 C162.690625 12.804375 162.38125 13.60875 162.0625 14.4375 C161 17 161 17 160 18 C168.25 18.33 176.5 18.66 185 19 C185.33 18.01 185.66 17.02 186 16 C187.65 16.33 189.3 16.66 191 17 C192.125 20.75 192.125 20.75 191 23 C189.33388095 23.042721 187.66617115 23.04063832 186 23 C185.67 22.67 185.34 22.34 185 22 C180.40290636 21.68947238 175.79378597 21.72151984 171.1875 21.6875 C169.89005859 21.65849609 168.59261719 21.62949219 167.25585938 21.59960938 C166.00998047 21.59123047 164.76410156 21.58285156 163.48046875 21.57421875 C161.76186646 21.55234497 161.76186646 21.55234497 160.00854492 21.5300293 C156.40352756 22.09317613 155.25554463 23.20931161 153 26 C153.69561035 25.99887207 154.3912207 25.99774414 155.10791016 25.99658203 C158.28124242 26.00874039 161.45219849 26.06644772 164.625 26.125 C166.26662109 26.12113281 166.26662109 26.12113281 167.94140625 26.1171875 C176.03817995 26.31347292 176.03817995 26.31347292 178.92773438 28.37597656 C180.31926162 29.88659848 181.66235753 31.44146245 183 33 C185.65366007 33.78497087 185.65366007 33.78497087 188.25 33.5 C189.10078125 33.4690625 189.9515625 33.438125 190.828125 33.40625 C193.20297095 33.17372397 193.20297095 33.17372397 195 31 C198.53571429 31.53571429 198.53571429 31.53571429 200 33 C200.04063832 34.66617115 200.042721 36.33388095 200 38 C197.625 38.625 197.625 38.625 195 39 C194.34 38.34 193.68 37.68 193 37 C190.52931954 36.73325397 188.08940148 36.68557068 185.60546875 36.63671875 C183 36 183 36 180.75585938 33.50390625 C176.20464131 29.36878112 171.26264091 30.21860916 165.35473633 30.29321289 C163.3335819 30.3123009 161.31945538 30.27319901 159.29882812 30.22851562 C151.66358164 30.24746165 146.42526854 30.98559769 140.15576172 35.47973633 C131.70132097 41.44188837 122.0223576 41.96179659 112 41 C109.35285408 40.33550498 106.83879143 39.51253938 104.265625 38.609375 C99.16134008 37.23649837 94.27061073 38.63389182 89.3125 40.0625 C79.22666246 42.69446159 69.28319699 41.50525206 60 37 C58.53799001 35.9718875 57.0810658 34.93651069 55.62890625 33.89453125 C49.52052062 30.18931462 43.71878123 30.11755811 36.70288086 30.27270508 C34.67156787 30.31281459 32.6466736 30.29323069 30.61523438 30.26757812 C23.29041895 29.99133497 23.29041895 29.99133497 17.24414062 33.50390625 C16.50357422 34.32761719 15.76300781 35.15132812 15 36 C12.39453125 36.63671875 12.39453125 36.63671875 9.8125 36.6875 C5.9368548 36.64556924 5.9368548 36.64556924 3 39 C0.375 38.625 0.375 38.625 -2 38 C-2 36.02 -2 34.04 -2 32 C0.375 31.375 0.375 31.375 3 31 C3.66 31.66 4.32 32.32 5 33 C7.26252298 33.43361729 7.26252298 33.43361729 9.8125 33.4375 C10.66457031 33.47746094 11.51664063 33.51742187 12.39453125 33.55859375 C15.239596 33.2349996 15.239596 33.2349996 16.9921875 30.5234375 C21.83324798 26.46197637 27.18991808 27.21714133 33.3125 27.1875 C34.53001953 27.16236328 35.74753906 27.13722656 37.00195312 27.11132812 C40.00162687 27.05251099 42.99984298 27.01618961 46 27 C43.39636449 23.92469138 41.91074375 22.17021251 37.87792969 21.41650391 C36.73743164 21.43632324 35.59693359 21.45614258 34.421875 21.4765625 C33.17921875 21.48816406 31.9365625 21.49976563 30.65625 21.51171875 C28.72265625 21.56779297 28.72265625 21.56779297 26.75 21.625 C25.44546875 21.63917969 24.1409375 21.65335938 22.796875 21.66796875 C17.01804999 21.20975277 17.01804999 21.20975277 12 23 C10.33382885 23.04063832 8.66611905 23.042721 7 23 C6.375 20.625 6.375 20.625 6 18 C6.66 17.34 7.32 16.68 8 16 C10.625 16.375 10.625 16.375 13 17 C13 17.66 13 18.32 13 19 C25.375 18.505 25.375 18.505 38 18 C37.01 16.68 36.02 15.36 35 14 C35 13.34 35 12.68 35 12 C33.98679688 12.06960937 32.97359375 12.13921875 31.9296875 12.2109375 C21.1003759 12.72931891 21.1003759 12.72931891 17.984375 10.6640625 C17.53578125 10.11492187 17.0871875 9.56578125 16.625 9 C14.39593671 5.84301 14.39593671 5.84301 11.7265625 5.53125 C9.38742942 5.50173413 7.29094471 5.5234835 5 6 C4.34 6.66 3.68 7.32 3 8 C0.375 7.625 0.375 7.625 -2 7 C-2.125 4.625 -2.125 4.625 -2 2 C-1.34 1.34 -0.68 0.68 0 0 Z " fill="#E5633C" transform="translate(47,109)"/>
<path d="M0 0 C-2.63062106 6.40070901 -9.96782038 10.98391019 -16 14 C-20.69733904 15.47630656 -26.12156514 15.50942948 -31 15 C-31.66 14.34 -32.32 13.68 -33 13 C-23.14232706 4.70370788 -13.13415126 -0.27945003 0 0 Z " fill="#FDF4F2" transform="translate(194,125)"/>
<path d="M0 0 C12.44992011 0.48162167 22.36413713 3.95028739 32 12 C32.495 12.99 32.495 12.99 33 14 C28.16695156 16.41652422 20.98759256 15.61107247 15.9375 14 C9.66621612 11.28633886 2.63148431 6.46304112 0 0 Z " fill="#FDF4F1" transform="translate(98,125)"/>
<path d="M0 0 C4.20728042 -0.72799492 8.48717416 -0.55560966 12.75 -0.5625 C14.52117187 -0.61760742 14.52117187 -0.61760742 16.328125 -0.67382812 C24.95298176 -0.71753517 24.95298176 -0.71753517 27.98144531 1.35791016 C29.36921729 2.86214789 30.68878023 4.42858506 32 6 C34.65366007 6.78497087 34.65366007 6.78497087 37.25 6.5 C38.10078125 6.4690625 38.9515625 6.438125 39.828125 6.40625 C42.20297095 6.17372397 42.20297095 6.17372397 44 4 C47.53571429 4.53571429 47.53571429 4.53571429 49 6 C49.04063832 7.66617115 49.042721 9.33388095 49 11 C46.625 11.625 46.625 11.625 44 12 C43.34 11.34 42.68 10.68 42 10 C39.52931954 9.73325397 37.08940148 9.68557068 34.60546875 9.63671875 C32 9 32 9 29.76416016 6.50439453 C26.3452354 3.40676778 24.71711919 3.35308968 20.16796875 3.29296875 C18.87568359 3.26396484 17.58339844 3.23496094 16.25195312 3.20507812 C14.89713781 3.1986898 13.54231987 3.19283712 12.1875 3.1875 C10.8131116 3.16434252 9.43875856 3.13897455 8.06445312 3.11132812 C4.70934485 3.05246658 1.35554126 3.01617663 -2 3 C-1.34 2.01 -0.68 1.02 0 0 Z " fill="#91A2B1" transform="translate(198,136)"/>
<path d="M0 0 C1.24716797 0.01611328 2.49433594 0.03222656 3.77929688 0.04882812 C5.07287109 0.09072266 6.36644531 0.13261719 7.69921875 0.17578125 C9.01212891 0.19833984 10.32503906 0.22089844 11.67773438 0.24414062 C14.91522005 0.303004 18.15038875 0.38519321 21.38671875 0.48828125 C21.88171875 1.47828125 21.88171875 1.47828125 22.38671875 2.48828125 C21.53440674 2.49239014 20.68209473 2.49649902 19.80395508 2.50073242 C16.62576527 2.52778545 13.44888583 2.57694555 10.27124023 2.64086914 C8.89896444 2.66399103 7.52651266 2.67843128 6.15405273 2.68383789 C4.17537404 2.6931679 2.19695251 2.73685144 0.21875 2.78125 C-0.97000732 2.79696045 -2.15876465 2.8126709 -3.38354492 2.82885742 C-7.47280791 3.66377309 -8.87634828 5.43336437 -11.61328125 8.48828125 C-14.21875 9.125 -14.21875 9.125 -16.80078125 9.17578125 C-20.67642645 9.13385049 -20.67642645 9.13385049 -23.61328125 11.48828125 C-26.23828125 11.11328125 -26.23828125 11.11328125 -28.61328125 10.48828125 C-28.61328125 8.50828125 -28.61328125 6.52828125 -28.61328125 4.48828125 C-26.23828125 3.86328125 -26.23828125 3.86328125 -23.61328125 3.48828125 C-22.95328125 4.14828125 -22.29328125 4.80828125 -21.61328125 5.48828125 C-19.35075827 5.92189854 -19.35075827 5.92189854 -16.80078125 5.92578125 C-15.94871094 5.96574219 -15.09664062 6.00570312 -14.21875 6.046875 C-11.36146114 5.70106471 -11.36146114 5.70106471 -9.36376953 2.98388672 C-5.96987467 -0.095502 -4.50777652 -0.10291727 0 0 Z " fill="#8195A5" transform="translate(73.61328125,136.51171875)"/>
<path d="M0 0 C3.53571429 0.53571429 3.53571429 0.53571429 5 2 C5.04063832 3.66617115 5.042721 5.33388095 5 7 C2.625 7.625 2.625 7.625 0 8 C-0.66 7.34 -1.32 6.68 -2 6 C-5.07192417 5.36103977 -7.92782012 5.36764737 -11 6 C-12.48853013 7.31942829 -12.48853013 7.31942829 -13.6875 9 C-15.92402928 11.72997557 -16.86141488 11.98413504 -20.48046875 12.3984375 C-24.00385102 12.37723359 -27.48658778 12.25989625 -31 12 C-30.67 11.34 -30.34 10.68 -30 10 C-28.10851124 9.84703357 -26.20995727 9.77800675 -24.3125 9.75 C-19.95452412 9.58870478 -19.95452412 9.58870478 -16.22265625 7.640625 C-15.32996173 6.55386645 -14.44568077 5.46013749 -13.5703125 4.359375 C-10.84507813 2.00021689 -7.64785754 2.26632468 -4.171875 2.203125 C-1.78771864 2.21317828 -1.78771864 2.21317828 0 0 Z " fill="#778D9E" transform="translate(242,109)"/>
<path d="M0 0 C3.53571429 0.53571429 3.53571429 0.53571429 5 2 C6.5617319 2.0794101 8.12452034 2.13843786 9.6875 2.1875 C14.52679969 2.59020618 14.52679969 2.59020618 16.57421875 4.36328125 C17.00347656 4.90339844 17.43273437 5.44351563 17.875 6 C19.907199 8.47398139 20.76335375 8.95680512 23.99609375 9.546875 C26.15770942 9.67927078 28.32285072 9.76491293 30.48828125 9.796875 C31.31714844 9.86390625 32.14601562 9.9309375 33 10 C33.495 10.99 33.495 10.99 34 12 C21.36383159 12.93473027 21.36383159 12.93473027 18.05078125 10.6640625 C17.15768744 9.57392507 16.28422957 8.46733127 15.43359375 7.34375 C13.42249034 5.45868304 11.96443392 5.53430564 9.25 5.5 C5.69011445 5.64193297 5.69011445 5.64193297 3 8 C0.375 7.625 0.375 7.625 -2 7 C-2.125 4.625 -2.125 4.625 -2 2 C-1.34 1.34 -0.68 0.68 0 0 Z " fill="#7A8FA1" transform="translate(47,109)"/>
<path d="M0 0 C2.475 0.495 2.475 0.495 5 1 C6.125 4.75 6.125 4.75 5 7 C3.33388095 7.042721 1.66617115 7.04063832 0 7 C-0.33 6.67 -0.66 6.34 -1 6 C-2.99782126 5.84174742 -5.00088834 5.74880829 -7.00390625 5.68359375 C-8.21884766 5.64169922 -9.43378906 5.59980469 -10.68554688 5.55664062 C-11.96494141 5.51732422 -13.24433594 5.47800781 -14.5625 5.4375 C-15.84576172 5.39431641 -17.12902344 5.35113281 -18.45117188 5.30664062 C-21.63399853 5.200152 -24.81690674 5.09814038 -28 5 C-27.67 4.34 -27.34 3.68 -27 3 C-18.42 3 -9.84 3 -1 3 C-0.67 2.01 -0.34 1.02 0 0 Z " fill="#8397A7" transform="translate(233,125)"/>
<path d="M0 0 C2.625 0.375 2.625 0.375 5 1 C5 1.66 5 2.32 5 3 C13.58 3 22.16 3 31 3 C31.495 3.99 31.495 3.99 32 5 C30.78098999 5.03758423 30.78098999 5.03758423 29.53735352 5.07592773 C25.87889248 5.19149118 22.22071472 5.31439584 18.5625 5.4375 C17.28310547 5.47681641 16.00371094 5.51613281 14.68554688 5.55664062 C13.47060547 5.59853516 12.25566406 5.64042969 11.00390625 5.68359375 C9.87799072 5.72025146 8.7520752 5.75690918 7.59204102 5.79467773 C5.07146559 5.71218045 5.07146559 5.71218045 4 7 C2.33382885 7.04063832 0.66611905 7.042721 -1 7 C-1.625 4.625 -1.625 4.625 -2 2 C-1.34 1.34 -0.68 0.68 0 0 Z " fill="#8699A9" transform="translate(55,125)"/>
<path d="M0 0 C0.33 0.33 0.66 0.66 1 1 C2.51469448 1.23192865 4.03754562 1.41215238 5.5625 1.5625 C6.38878906 1.64628906 7.21507812 1.73007813 8.06640625 1.81640625 C8.70449219 1.87699219 9.34257813 1.93757812 10 2 C10 2.33 10 2.66 10 3 C8.741875 3.103125 7.48375 3.20625 6.1875 3.3125 C2.62535802 3.73120792 1.46899007 4.41343898 -1 7 C-3.6875 6.6875 -3.6875 6.6875 -6 6 C-6 4.02 -6 2.04 -6 0 C-3.49749232 -1.25125384 -2.59701335 -0.83774624 0 0 Z " fill="#778D9E" transform="translate(51,141)"/>
<path d="M0 0 C2.625 0.375 2.625 0.375 5 1 C4.25 3.4375 4.25 3.4375 3 6 C0.875 6.8125 0.875 6.8125 -1 7 C-1.625 4.625 -1.625 4.625 -2 2 C-1.34 1.34 -0.68 0.68 0 0 Z " fill="#99A9B6" transform="translate(55,125)"/>
<path d="M0 0 C3.875 0.875 3.875 0.875 5 2 C5.04063832 3.66617115 5.042721 5.33388095 5 7 C3.35 7.33 1.7 7.66 0 8 C-0.33 7.01 -0.66 6.02 -1 5 C0.32 5.33 1.64 5.66 3 6 C2.01 4.02 1.02 2.04 0 0 Z " fill="#7B90A1" transform="translate(242,140)"/>
<path d="M0 0 C-0.33 1.65 -0.66 3.3 -1 5 C-2.32 4.67 -3.64 4.34 -5 4 C-5.33 2.68 -5.66 1.36 -6 0 C-3.50907189 -1.24546405 -2.58919267 -0.7767578 0 0 Z " fill="#ADBAC5" transform="translate(51,141)"/>
<path d="M0 0 C2.125 0.375 2.125 0.375 4 1 C3.67 2.65 3.34 4.3 3 6 C1.0625 5.6875 1.0625 5.6875 -1 5 C-1.33 4.01 -1.66 3.02 -2 2 C-1.34 1.34 -0.68 0.68 0 0 Z " fill="#AEBBC5" transform="translate(47,109)"/>
<path d="M0 0 C0.99 0 1.98 0 3 0 C3 1.98 3 3.96 3 6 C2.01 6 1.02 6 0 6 C-0.66 4.68 -1.32 3.36 -2 2 C-1.34 1.34 -0.68 0.68 0 0 Z " fill="#AEBBC6" transform="translate(242,109)"/>
<path d="M0 0 C0.66 0 1.32 0 2 0 C2.33 0.99 2.66 1.98 3 3 C1.8125 4.5625 1.8125 4.5625 0 6 C-2.6875 5.6875 -2.6875 5.6875 -5 5 C-4.67 3.68 -4.34 2.36 -4 1 C-3.67 1.66 -3.34 2.32 -3 3 C-2.01 3.33 -1.02 3.66 0 4 C0 2.68 0 1.36 0 0 Z " fill="#6E8598" transform="translate(50,111)"/>
<path d="M0 0 C2.0625 0.4375 2.0625 0.4375 4 1 C4 2.32 4 3.64 4 5 C2.68 5 1.36 5 0 5 C-0.5625 3.0625 -0.5625 3.0625 -1 1 C-0.67 0.67 -0.34 0.34 0 0 Z " fill="#B1BEC8" transform="translate(233,125)"/>
</svg>
