<?xml version="1.0" encoding="UTF-8"?>
<svg version="1.1" xmlns="http://www.w3.org/2000/svg" width="270" height="170">
<path d="M0 0 C89.1 0 178.2 0 270 0 C270 56.1 270 112.2 270 170 C180.9 170 91.8 170 0 170 C0 113.9 0 57.8 0 0 Z " fill="#FEFEFE" transform="translate(0,0)"/>
<path d="M0 0 C3.95108596 0.34136221 6.75537188 1.90547324 10.11083984 3.93579102 C16.43641777 7.70841212 21.9745497 10.3139543 29.51953125 9.8828125 C34.89044042 8.52049435 39.53072444 5.95707045 44.26513672 3.11547852 C44.95236816 2.70483154 45.63959961 2.29418457 46.34765625 1.87109375 C46.95617432 1.48880615 47.56469238 1.10651855 48.19165039 0.71264648 C50.56827438 -0.22394936 51.66648585 0.00719255 54 1 C59.00592861 7.93458262 62.61952688 15.83081454 66.5 23.4375 C67.15719233 24.72218931 67.81474228 26.00669573 68.47265625 27.29101562 C68.79285233 27.91759064 69.1130484 28.54416565 69.44294739 29.18972778 C70.08133148 30.42823196 70.72717015 31.66292409 71.38066101 32.89352417 C72.76888488 35.51549753 74.02434403 38.06760501 75.03051758 40.86181641 C76.08165736 43.55571378 76.81140115 45.09645109 79 47 C84.20747123 48.38531834 89.34057429 48.44749141 94.6875 48.5 C96.12187268 48.54278323 97.55613041 48.58962301 98.99023438 48.640625 C101.7451539 48.73580685 104.49955166 48.81172617 107.25537109 48.875 C111.86806434 49.02897698 116.42177126 49.42936613 121 50 C120 53 120 53 117.42163086 54.48291016 C116.28089111 54.99644043 115.14015137 55.5099707 113.96484375 56.0390625 C113.03219444 56.46251198 113.03219444 56.46251198 112.08070374 56.89451599 C110.03811915 57.81668873 107.98848664 58.7216839 105.9375 59.625 C105.23971436 59.93613739 104.54192871 60.24727478 103.82299805 60.56784058 C91.87654883 65.89413134 79.80201844 70.7708185 67.46533203 75.12744141 C65.30146169 75.89330322 63.14810555 76.68209724 60.99609375 77.48046875 C45.68188827 82.94382416 29.30074699 88.48449022 13.24414062 83.67138672 C10.64986016 82.89524755 8.03843836 82.20115792 5.421875 81.50390625 C-13.56838308 76.32530474 -31.53019416 69.24000538 -49.46829224 61.20898438 C-50.98516471 60.52990463 -52.50329033 59.85361692 -54.02267456 59.18017578 C-56.16107605 58.22910976 -58.29225406 57.26350928 -60.421875 56.29296875 C-61.39686699 55.86210213 -61.39686699 55.86210213 -62.39155579 55.42253113 C-63.96671494 54.69404123 -65.4897618 53.854988 -67 53 C-67.495 51.515 -67.495 51.515 -68 50 C-66.18580566 50.03649658 -66.18580566 50.03649658 -64.33496094 50.07373047 C-42.78548581 51.23780401 -42.78548581 51.23780401 -22.96191406 44.95654297 C-18.65335317 39.94364141 -16.64405677 34.12455303 -14.85791016 27.83349609 C-13.59247619 23.65403491 -11.61370838 19.96235469 -9.5625 16.125 C-8.93411017 14.85714322 -8.30890619 13.58770045 -7.6875 12.31640625 C-2.89208633 2.89208633 -2.89208633 2.89208633 0 0 Z " fill="#939498" transform="translate(101,15)"/>
<path d="M0 0 C0.66 0 1.32 0 2 0 C2 1.32 2 2.64 2 4 C2.66 4 3.32 4 4 4 C4.66 3.01 5.32 2.02 6 1 C15.8392611 1.03501516 15.8392611 1.03501516 18.64453125 3.3671875 C19.07121094 3.90601562 19.49789062 4.44484375 19.9375 5 C21.94460629 7.48952649 22.8049759 7.96024025 26.02734375 8.6171875 C29.02666667 8.84817386 31.99227769 8.99026627 35 9 C35 8.34 35 7.68 35 7 C40.16559522 4.91213462 44.70459045 4.65000166 50.1875 4.6875 C51.03320557 4.69241455 51.87891113 4.6973291 52.75024414 4.70239258 C59.24006951 4.82371517 64.90810746 5.67793602 71 8 C71.9590625 8.32871094 72.918125 8.65742187 73.90625 8.99609375 C84.15664576 12.81357361 93.56584088 19.03813552 100 28 C100.61875 27.34 101.2375 26.68 101.875 26 C116.83129658 11.25200838 133.45653059 4.63664288 154.2734375 4.69921875 C163.43899658 5.43899658 163.43899658 5.43899658 166 8 C173.23409477 9.04425703 173.23409477 9.04425703 179.7421875 6.66015625 C180.61951275 5.5570106 181.49067533 4.44893447 182.35546875 3.3359375 C185.80547817 0.53331702 190.80468269 1.59689122 195 2 C195 1.34 195 0.68 195 0 C196.98 0 198.96 0 201 0 C201.625 2.375 201.625 2.375 202 5 C201.34 5.66 200.68 6.32 200 7 C197.375 6.625 197.375 6.625 195 6 C195 5.34 195 4.68 195 4 C188.80175931 3.80309593 188.80175931 3.80309593 183.4921875 6.3671875 C183.08226562 6.90601562 182.67234375 7.44484375 182.25 8 C180.06857327 10.67461886 179.15918303 10.9791568 175.62890625 11.44140625 C173.13528255 11.52052839 170.63909164 11.54375546 168.14453125 11.50390625 C167.10683594 11.66761719 166.06914062 11.83132812 165 12 C163.2814706 14.46843841 163.2814706 14.46843841 162 17 C165.95827235 17.05785647 169.9164367 17.09354717 173.875 17.125 C175.00292969 17.14175781 176.13085938 17.15851563 177.29296875 17.17578125 C178.90751953 17.18544922 178.90751953 17.18544922 180.5546875 17.1953125 C182.04718018 17.21102295 182.04718018 17.21102295 183.56982422 17.22705078 C186.18171417 17.24379401 186.18171417 17.24379401 188 15 C190.625 15.375 190.625 15.375 193 16 C193.042721 17.66611905 193.04063832 19.33382885 193 21 C192 22 192 22 189.5 22.125 C187 22 187 22 186 21 C181.56978449 20.68988064 177.12722999 20.72152961 172.6875 20.6875 C171.43775391 20.65849609 170.18800781 20.62949219 168.90039062 20.59960938 C167.69962891 20.59123047 166.49886719 20.58285156 165.26171875 20.57421875 C164.15787842 20.55963623 163.05403809 20.54505371 161.91674805 20.5300293 C158.37879952 21.10009299 157.22654848 22.26860049 155 25 C155.69561035 24.99887207 156.3912207 24.99774414 157.10791016 24.99658203 C160.28124242 25.00874039 163.45219849 25.06644772 166.625 25.125 C168.26662109 25.12113281 168.26662109 25.12113281 169.94140625 25.1171875 C178.03083796 25.31329494 178.03083796 25.31329494 180.92333984 27.36279297 C182.32076453 28.87377813 183.66327798 30.43505715 185 32 C187.70888307 32.91254875 187.70888307 32.91254875 190.375 32.875 C191.68597656 32.93300781 191.68597656 32.93300781 193.0234375 32.9921875 C194.00183594 32.99605469 194.00183594 32.99605469 195 33 C195 32.34 195 31.68 195 31 C196.8125 30.375 196.8125 30.375 199 30 C199.99 30.66 200.98 31.32 202 32 C201.67 33.65 201.34 35.3 201 37 C198.525 37.495 198.525 37.495 196 38 C195.67 37.01 195.34 36.02 195 35 C194.26394531 35.05800781 193.52789062 35.11601563 192.76953125 35.17578125 C191.30580078 35.24345703 191.30580078 35.24345703 189.8125 35.3125 C188.36810547 35.39951172 188.36810547 35.39951172 186.89453125 35.48828125 C184 35 184 35 181.73999023 32.51318359 C177.20021804 28.34919758 172.21418107 29.21875132 166.29980469 29.29321289 C164.26768927 29.31233356 162.24253114 29.27316332 160.2109375 29.22851562 C152.68989457 29.24713207 147.82087252 29.83220203 141.86083984 34.53686523 C134.67726867 40.18513892 123.76685107 41.01244474 115 40 C111.91188957 39.28436736 108.87144549 38.45379263 105.81640625 37.609375 C100.30970614 36.41791145 95.58587352 37.55066917 90.25 39.0625 C80.04160821 41.74677832 69.435611 40.44188666 60.1953125 35.5 C53.63362069 31.63362069 53.63362069 31.63362069 52 30 C47.79884778 29.70937739 43.59173992 29.68594271 39.38183594 29.64990234 C37.96760557 29.63338247 36.55345734 29.60614403 35.13964844 29.56787109 C33.09786806 29.51288169 31.05804781 29.49119555 29.015625 29.4765625 C27.79133789 29.45674316 26.56705078 29.43692383 25.30566406 29.41650391 C21.11402638 30.15638678 19.78931767 31.89303113 17 35 C14.10546875 35.48828125 14.10546875 35.48828125 11.1875 35.3125 C10.21167969 35.26738281 9.23585938 35.22226563 8.23046875 35.17578125 C7.12638672 35.08876953 7.12638672 35.08876953 6 35 C6 35.66 6 36.32 6 37 C3.625 37.625 3.625 37.625 1 38 C0.34 37.34 -0.32 36.68 -1 36 C-0.625 33.375 -0.625 33.375 0 31 C3.75 29.875 3.75 29.875 6 31 C6 31.66 6 32.32 6 33 C7.54221758 32.99390428 9.0842779 32.94317354 10.625 32.875 C11.48351563 32.85179687 12.34203125 32.82859375 13.2265625 32.8046875 C16.31892775 32.18273803 16.31892775 32.18273803 18.5625 29 C21.4388554 25.88990014 23.65155059 25.4901171 27.8359375 25.1953125 C30.01511075 25.14248406 32.19519254 25.119865 34.375 25.125 C35.49261719 25.104375 36.61023437 25.08375 37.76171875 25.0625 C40.5085604 25.01554544 43.25284036 24.99554549 46 25 C45.505 24.54625 45.01 24.0925 44.5 23.625 C43 22 43 22 43 20 C39.03047101 20.11798944 35.06119219 20.24221799 31.09204102 20.37231445 C29.74085853 20.41571223 28.38961947 20.4573837 27.03833008 20.49731445 C25.09963299 20.55489952 23.16113724 20.61914298 21.22265625 20.68359375 C20.05484619 20.72025146 18.88703613 20.75690918 17.68383789 20.79467773 C15.08220205 20.70076188 15.08220205 20.70076188 14 22 C11.5 22.125 11.5 22.125 9 22 C8 21 8 21 7.9375 18.4375 C7.958125 17.633125 7.97875 16.82875 8 16 C10.375 15.375 10.375 15.375 13 15 C13.66 15.66 14.32 16.32 15 17 C17.52377655 17.27808217 17.52377655 17.27808217 20.4453125 17.1953125 C21.52167969 17.18886719 22.59804688 17.18242188 23.70703125 17.17578125 C24.83496094 17.15902344 25.96289062 17.14226562 27.125 17.125 C28.26066406 17.11597656 29.39632812 17.10695313 30.56640625 17.09765625 C33.37781299 17.07403098 36.18880298 17.04109013 39 17 C37.7185294 14.46843841 37.7185294 14.46843841 36 12 C32.78203518 11.40015234 32.78203518 11.40015234 29.1875 11.5625 C22.49423312 11.35012408 22.49423312 11.35012408 20.09765625 9.65234375 C19.21633027 8.57176146 18.3520882 7.4769587 17.5078125 6.3671875 C14.44560641 3.59057576 9.95087496 4.01561611 6 4 C5.67 4.99 5.34 5.98 5 7 C3.35 6.67 1.7 6.34 0 6 C-1.125 2.25 -1.125 2.25 0 0 Z " fill="#E5643D" transform="translate(27,90)"/>
<path d="M0 0 C-5.21410082 6.85338252 -11.39986602 12.10797053 -20 14 C-28.94736842 14.52631579 -28.94736842 14.52631579 -32 13 C-32 12.34 -32 11.68 -32 11 C-22.44672981 3.49781877 -12.19265939 -0.95213826 0 0 Z " fill="#FDF9F7" transform="translate(175,106)"/>
<path d="M0 0 C11.98643667 -0.79909578 22.64690782 3.5248909 32 11 C32 11.66 32 12.32 32 13 C27.95161119 15.02419441 23.39108429 14.56659152 19 14 C11.43834039 11.37312073 4.9641413 7.34501159 0 1 C0 0.67 0 0.34 0 0 Z " fill="#FDF8F7" transform="translate(80,106)"/>
<path d="M0 0 C1.7644043 -0.05510742 1.7644043 -0.05510742 3.56445312 -0.11132812 C12.13505784 -0.15493211 12.13505784 -0.15493211 15.16015625 1.90722656 C16.55472418 3.41231759 17.8753385 4.98504924 19.1875 6.5625 C21.89638307 7.47504875 21.89638307 7.47504875 24.5625 7.4375 C25.43648437 7.47617188 26.31046875 7.51484375 27.2109375 7.5546875 C28.18933594 7.55855469 28.18933594 7.55855469 29.1875 7.5625 C29.1875 6.9025 29.1875 6.2425 29.1875 5.5625 C31 4.9375 31 4.9375 33.1875 4.5625 C34.1775 5.2225 35.1675 5.8825 36.1875 6.5625 C35.8575 8.2125 35.5275 9.8625 35.1875 11.5625 C33.5375 11.8925 31.8875 12.2225 30.1875 12.5625 C29.6925 11.0775 29.6925 11.0775 29.1875 9.5625 C28.08341797 9.64951172 28.08341797 9.64951172 26.95703125 9.73828125 C25.98121094 9.78339844 25.00539062 9.82851562 24 9.875 C23.03707031 9.93300781 22.07414062 9.99101563 21.08203125 10.05078125 C18.1875 9.5625 18.1875 9.5625 15.93359375 7.07617188 C12.52874296 3.95949836 10.90610722 3.91560935 6.35546875 3.85546875 C5.06318359 3.82646484 3.77089844 3.79746094 2.43945312 3.76757812 C1.08463781 3.7611898 -0.27018013 3.75533712 -1.625 3.75 C-2.9993884 3.72684252 -4.37374144 3.70147455 -5.74804688 3.67382812 C-9.10315515 3.61496658 -12.45695874 3.57867663 -15.8125 3.5625 C-11.98627213 -1.36888218 -5.70275461 0.00928283 0 0 Z " fill="#8C9EAD" transform="translate(192.8125,115.4375)"/>
<path d="M0 0 C1.78180664 0.00290039 1.78180664 0.00290039 3.59960938 0.00585938 C12.29808533 0.13907483 12.29808533 0.13907483 14.6730957 2.09399414 C15.04909912 2.57860107 15.42510254 3.06320801 15.8125 3.5625 C14.96018799 3.56660889 14.10787598 3.57071777 13.22973633 3.57495117 C10.05154652 3.6020042 6.87466708 3.6511643 3.69702148 3.71508789 C2.32474569 3.73820978 0.95229391 3.75265003 -0.42016602 3.75805664 C-2.39884471 3.76738665 -4.37726624 3.81107019 -6.35546875 3.85546875 C-7.54422607 3.8711792 -8.7329834 3.88688965 -9.95776367 3.90307617 C-14.0457875 4.73773883 -15.43454209 6.52565822 -18.1875 9.5625 C-21.08203125 10.05078125 -21.08203125 10.05078125 -24 9.875 C-24.97582031 9.82988281 -25.95164062 9.78476563 -26.95703125 9.73828125 C-27.69308594 9.68027344 -28.42914063 9.62226562 -29.1875 9.5625 C-29.1875 10.2225 -29.1875 10.8825 -29.1875 11.5625 C-31.5625 12.1875 -31.5625 12.1875 -34.1875 12.5625 C-34.8475 11.9025 -35.5075 11.2425 -36.1875 10.5625 C-35.8125 7.9375 -35.8125 7.9375 -35.1875 5.5625 C-31.4375 4.4375 -31.4375 4.4375 -29.1875 5.5625 C-29.1875 6.2225 -29.1875 6.8825 -29.1875 7.5625 C-27.64528242 7.55640428 -26.1032221 7.50567354 -24.5625 7.4375 C-23.70398437 7.41429688 -22.84546875 7.39109375 -21.9609375 7.3671875 C-18.8666142 6.75011607 -18.8666142 6.75011607 -16.67578125 3.54296875 C-12.22040577 -1.26550672 -6.09722647 -0.19043392 0 0 Z " fill="#8A9DAC" transform="translate(62.1875,115.4375)"/>
<path d="M0 0 C1.98 0 3.96 0 6 0 C6.625 2.375 6.625 2.375 7 5 C6.34 5.66 5.68 6.32 5 7 C2.375 6.625 2.375 6.625 0 6 C0 5.34 0 4.68 0 4 C-6.22227672 3.80606763 -6.22227672 3.80606763 -11.54296875 6.40234375 C-12.17138672 7.22412109 -12.17138672 7.22412109 -12.8125 8.0625 C-14.94848768 10.67176775 -15.80262459 10.97606853 -19.25390625 11.39453125 C-22.52148279 11.37690678 -25.74333184 11.26092 -29 11 C-29 10.34 -29 9.68 -29 9 C-27.80503906 8.99613281 -27.80503906 8.99613281 -26.5859375 8.9921875 C-20.53442846 9.02586257 -20.53442846 9.02586257 -15.25390625 6.59765625 C-14.38312105 5.499485 -13.51331297 4.40053817 -12.64453125 3.30078125 C-9.17100222 0.55331054 -4.1868493 1.59770487 0 2 C0 1.34 0 0.68 0 0 Z " fill="#788E9F" transform="translate(222,90)"/>
<path d="M0 0 C2.625 0.375 2.625 0.375 5 1 C5.042721 2.66611905 5.04063832 4.33382885 5 6 C4 7 4 7 1.5 7.125 C-1 7 -1 7 -2 6 C-3.99782126 5.84174742 -6.00088834 5.74880829 -8.00390625 5.68359375 C-9.21884766 5.64169922 -10.43378906 5.59980469 -11.68554688 5.55664062 C-12.96494141 5.51732422 -14.24433594 5.47800781 -15.5625 5.4375 C-16.84576172 5.39431641 -18.12902344 5.35113281 -19.45117188 5.30664062 C-22.63399853 5.200152 -25.81690674 5.09814038 -29 5 C-28.67 4.34 -28.34 3.68 -28 3 C-26.83428467 2.970271 -26.83428467 2.970271 -25.64501953 2.93994141 C-22.13799309 2.84492991 -18.63158206 2.73515441 -15.125 2.625 C-13.90167969 2.5940625 -12.67835938 2.563125 -11.41796875 2.53125 C-10.25136719 2.49257812 -9.08476562 2.45390625 -7.8828125 2.4140625 C-6.26463623 2.36693115 -6.26463623 2.36693115 -4.61376953 2.31884766 C-1.84238346 2.25323678 -1.84238346 2.25323678 0 0 Z " fill="#798D9E" transform="translate(215,105)"/>
<path d="M0 0 C4.70588235 0.70588235 4.70588235 0.70588235 6 2 C7.92478813 2.15806531 9.8549921 2.251135 11.78515625 2.31640625 C12.95498047 2.35830078 14.12480469 2.40019531 15.33007812 2.44335938 C17.17762695 2.50233398 17.17762695 2.50233398 19.0625 2.5625 C20.29806641 2.60568359 21.53363281 2.64886719 22.80664062 2.69335938 C25.87097335 2.79984198 28.93539073 2.90185424 32 3 C32.495 3.99 32.495 3.99 33 5 C31.78098999 5.03758423 31.78098999 5.03758423 30.53735352 5.07592773 C26.87889248 5.19149118 23.22071472 5.31439584 19.5625 5.4375 C18.28310547 5.47681641 17.00371094 5.51613281 15.68554688 5.55664062 C14.47060547 5.59853516 13.25566406 5.64042969 12.00390625 5.68359375 C10.87799072 5.72025146 9.7520752 5.75690918 8.59204102 5.79467773 C6.07146559 5.71218045 6.07146559 5.71218045 5 7 C2.5 7.125 2.5 7.125 0 7 C-1 6 -1 6 -1.125 3.5 C-1 1 -1 1 0 0 Z " fill="#768B9C" transform="translate(36,105)"/>
<path d="M0 0 C0.66 0 1.32 0 2 0 C2 1.32 2 2.64 2 4 C2.66 4 3.32 4 4 4 C4.66 3.01 5.32 2.02 6 1 C15.8392611 1.03501516 15.8392611 1.03501516 18.64453125 3.3671875 C19.07121094 3.90601562 19.49789062 4.44484375 19.9375 5 C21.94460629 7.48952649 22.8049759 7.96024025 26.02734375 8.6171875 C29.02666667 8.84817386 31.99227769 8.99026627 35 9 C35 9.66 35 10.32 35 11 C23.32826901 11.93512385 23.32826901 11.93512385 20.15234375 9.69921875 C19.26456903 8.61473592 18.39431977 7.51564892 17.54296875 6.40234375 C14.45561458 3.5963687 9.98893886 4.01576656 6 4 C5.67 4.99 5.34 5.98 5 7 C3.35 6.67 1.7 6.34 0 6 C-1.125 2.25 -1.125 2.25 0 0 Z " fill="#778D9E" transform="translate(27,90)"/>
<path d="M0 0 C2.625 0.9375 2.625 0.9375 5 2 C4.67 3.65 4.34 5.3 4 7 C2.35 7.33 0.7 7.66 -1 8 C-1.68707555 5.50935112 -2 3.62113708 -2 1 C-1.34 0.67 -0.68 0.34 0 0 Z " fill="#7C92A2" transform="translate(224,120)"/>
<path d="M0 0 C2.625 0.375 2.625 0.375 5 1 C5.042721 2.66611905 5.04063832 4.33382885 5 6 C4 7 4 7 1.4375 7.0625 C0.2309375 7.0315625 0.2309375 7.0315625 -1 7 C-1.625 4.625 -1.625 4.625 -2 2 C-1.34 1.34 -0.68 0.68 0 0 Z " fill="#6F8799" transform="translate(215,105)"/>
<path d="M0 0 C2.125 0.9375 2.125 0.9375 4 2 C3.34 3.32 2.68 4.64 2 6 C1.34 6 0.68 6 0 6 C-0.33 6.66 -0.66 7.32 -1 8 C-1.66 7.34 -2.32 6.68 -3 6 C-2.75 3.4375 -2.75 3.4375 -2 1 C-1.34 0.67 -0.68 0.34 0 0 Z " fill="#9DADBA" transform="translate(29,120)"/>
<path d="M0 0 C1.32 0.66 2.64 1.32 4 2 C4 3.32 4 4.64 4 6 C2.0625 6.5625 2.0625 6.5625 0 7 C-1 6 -1 6 -1.125 3.5 C-1 1 -1 1 0 0 Z " fill="#A6B4C0" transform="translate(36,105)"/>
<path d="M0 0 C2.125 0.9375 2.125 0.9375 4 2 C3.34 3.32 2.68 4.64 2 6 C1.34 6 0.68 6 0 6 C0 4.68 0 3.36 0 2 C-0.66 1.67 -1.32 1.34 -2 1 C-1.34 0.67 -0.68 0.34 0 0 Z " fill="#B2BFC9" transform="translate(224,120)"/>
<path d="M0 0 C2.475 0.495 2.475 0.495 5 1 C4.67 2.32 4.34 3.64 4 5 C2.68 5 1.36 5 0 5 C0 3.35 0 1.7 0 0 Z " fill="#B4C0CA" transform="translate(215,105)"/>
<path d="M0 0 C1.32 0.66 2.64 1.32 4 2 C3.34 3.32 2.68 4.64 2 6 C1.01 5.67 0.02 5.34 -1 5 C-0.67 3.35 -0.34 1.7 0 0 Z " fill="#BDC7D0" transform="translate(29,89)"/>
<path d="M0 0 C1.98 0 3.96 0 6 0 C5.34 1.65 4.68 3.3 4 5 C3.34 5 2.68 5 2 5 C2 3.68 2 2.36 2 1 C1.34 0.67 0.68 0.34 0 0 Z " fill="#B7C3CC" transform="translate(222,90)"/>
</svg>
