<?xml version="1.0" encoding="UTF-8"?>
<svg version="1.1" xmlns="http://www.w3.org/2000/svg" width="249" height="183">
<path d="M0 0 C82.17 0 164.34 0 249 0 C249 60.39 249 120.78 249 183 C166.83 183 84.66 183 0 183 C0 122.61 0 62.22 0 0 Z " fill="#FEFEFE" transform="translate(0,0)"/>
<path d="M0 0 C3.11826219 1.23560682 5.8473691 2.66262908 8.73413086 4.34375 C16.29589959 8.94992347 16.29589959 8.94992347 24.81640625 10.125 C30.00685762 8.46470034 34.78442628 5.8561681 39.5625 3.265625 C42.72653681 1.56729947 45.8790711 0.34062732 49.33203125 -0.6796875 C53.02512578 2.57136649 55.10090399 6.27152658 57.265625 10.61328125 C57.62543961 11.31874588 57.98525421 12.02421051 58.35597229 12.75105286 C59.50115421 14.99967246 60.63571222 17.25344536 61.76953125 19.5078125 C62.8994754 21.73846769 64.03162715 23.96798632 65.16470337 26.197052 C65.89289223 27.62987334 66.6197816 29.06335592 67.3453064 30.49752808 C69.62346052 34.98616442 71.99458494 39.40257715 74.53930664 43.74731445 C75.33203125 45.3203125 75.33203125 45.3203125 75.33203125 47.3203125 C76.17378906 47.29710937 77.01554688 47.27390625 77.8828125 47.25 C91.42175157 47.05317223 104.84696114 48.20740944 118.33203125 49.3203125 C118.19116211 51.12646484 118.19116211 51.12646484 117.33203125 53.3203125 C114.87719727 54.90087891 114.87719727 54.90087891 111.5859375 56.421875 C110.99247025 56.69988953 110.39900299 56.97790405 109.78755188 57.26434326 C107.83032231 58.17444417 105.86354708 59.06102892 103.89453125 59.9453125 C102.5229092 60.5710386 101.15132761 61.19685336 99.77978516 61.82275391 C33.90488132 91.66680869 33.90488132 91.66680869 3.51953125 82.8203125 C2.88486938 82.63880646 2.25020752 82.45730042 1.59631348 82.27029419 C-20.4011912 75.97827703 -40.93846068 67.29301725 -61.63179016 57.62956238 C-64.94138032 56.08948458 -68.26372366 54.63857776 -71.66796875 53.3203125 C-71.66796875 52.0003125 -71.66796875 50.6803125 -71.66796875 49.3203125 C-57.31540304 48.07557378 -43.08031534 46.95900019 -28.66796875 47.3203125 C-28.26505615 46.0209375 -28.26505615 46.0209375 -27.85400391 44.6953125 C-26.69192133 41.38847233 -25.30632955 38.42825939 -23.69140625 35.3203125 C-23.10649414 34.19157715 -22.52158203 33.0628418 -21.91894531 31.89990234 C-21.29403013 30.70649077 -20.66869775 29.51329757 -20.04296875 28.3203125 C-19.72871948 27.71825989 -19.41447021 27.11620728 -19.09069824 26.49591064 C-4.6423838 -1.18268636 -4.6423838 -1.18268636 0 0 Z " fill="#FCFCFC" transform="translate(112.66796875,30.6796875)"/>
<path d="M0 0 C3.53571429 0.53571429 3.53571429 0.53571429 5 2 C6.5617319 2.0794101 8.12452034 2.13843786 9.6875 2.1875 C14.53143958 2.58376022 14.53143958 2.58376022 16.57421875 4.3984375 C17.00347656 4.94757813 17.43273437 5.49671875 17.875 6.0625 C19.85024223 8.40352783 20.70680003 8.94736382 23.78515625 9.5 C28.51027333 9.59368262 31.98877424 9.45322691 36.35546875 7.49609375 C40.58254291 5.76086395 43.8619788 5.4613382 48.375 5.5 C49.15302979 5.50499512 49.93105957 5.50999023 50.73266602 5.51513672 C67.29569063 5.99977774 81.86971189 12.78517724 94.00390625 23.8515625 C95.85808486 25.84725377 96.95562604 27.50479302 98 30 C98.66 30 99.32 30 100 30 C100.268125 29.40960938 100.53625 28.81921875 100.8125 28.2109375 C106.52467392 17.57577159 119.73140847 11.89711553 130.59765625 8.08984375 C136.84087785 6.24349898 142.84131663 5.69632236 149.3125 5.625 C150.06523193 5.61114258 150.81796387 5.59728516 151.59350586 5.58300781 C156.73756422 5.62624954 160.2663734 6.85490223 165 9 C169.09123519 9.66553511 172.91309131 9.73369469 177 9 C178.8360249 7.62604818 180.02444787 6.190285 181.4375 4.39453125 C184.10684004 2.01214527 187.1844167 2.267581 190.6328125 2.203125 C193.19781693 1.98302561 194.7907423 1.28279479 197 0 C197.99 0.66 198.98 1.32 200 2 C200.1875 4.625 200.1875 4.625 200 7 C197.625 7.625 197.625 7.625 195 8 C194.01 7.01 194.01 7.01 193 6 C189.92852822 5.36113387 187.07164105 5.36667195 184 6 C182.65352807 7.53882506 181.30921789 9.08052637 180.015625 10.6640625 C175.43791198 13.69812811 168.31078304 12.36486296 163 12 C162.690625 12.804375 162.38125 13.60875 162.0625 14.4375 C161 17 161 17 160 18 C168.25 18.33 176.5 18.66 185 19 C185.33 18.01 185.66 17.02 186 16 C187.65 16.33 189.3 16.66 191 17 C192.125 20.75 192.125 20.75 191 23 C189.02 23 187.04 23 185 23 C185 22.34 185 21.68 185 21 C180.4157377 21.05178948 175.83337172 21.14685171 171.25 21.25 C169.94804687 21.26417969 168.64609375 21.27835938 167.3046875 21.29296875 C166.05429688 21.32519531 164.80390625 21.35742188 163.515625 21.390625 C162.36352539 21.41157227 161.21142578 21.43251953 160.02441406 21.45410156 C156.44746591 22.09973089 155.25533407 23.22197049 153 26 C153.69561035 25.99887207 154.3912207 25.99774414 155.10791016 25.99658203 C158.28124242 26.00874039 161.45219849 26.06644772 164.625 26.125 C166.26662109 26.12113281 166.26662109 26.12113281 167.94140625 26.1171875 C176.03817995 26.31347292 176.03817995 26.31347292 178.92773438 28.37597656 C180.31926162 29.88659848 181.66235753 31.44146245 183 33 C185.65366007 33.78497087 185.65366007 33.78497087 188.25 33.5 C189.10078125 33.4690625 189.9515625 33.438125 190.828125 33.40625 C193.20297095 33.17372397 193.20297095 33.17372397 195 31 C198.53571429 31.53571429 198.53571429 31.53571429 200 33 C200.04063832 34.66617115 200.042721 36.33388095 200 38 C197.625 38.625 197.625 38.625 195 39 C194.34 38.34 193.68 37.68 193 37 C190.52931954 36.73325397 188.08940148 36.68557068 185.60546875 36.63671875 C183 36 183 36 180.75585938 33.50390625 C176.20464131 29.36878112 171.26264091 30.21860916 165.35473633 30.29321289 C163.3335819 30.3123009 161.31945538 30.27319901 159.29882812 30.22851562 C151.66358164 30.24746165 146.42526854 30.98559769 140.15576172 35.47973633 C131.70132097 41.44188837 122.0223576 41.96179659 112 41 C109.35086396 40.33500541 106.83386272 39.51056749 104.2578125 38.609375 C99.6316597 37.36079397 95.22065675 38.50815206 90.63671875 39.5234375 C79.72503232 41.92505269 70.18712064 42.02636295 60 37 C59.33234619 36.51716553 58.66469238 36.03433105 57.97680664 35.53686523 C51.02534254 30.6905082 45.08398372 30.08736853 36.70288086 30.27270508 C34.67156787 30.31281459 32.6466736 30.29323069 30.61523438 30.26757812 C23.29041895 29.99133497 23.29041895 29.99133497 17.24414062 33.50390625 C16.50357422 34.32761719 15.76300781 35.15132812 15 36 C12.39453125 36.63671875 12.39453125 36.63671875 9.8125 36.6875 C5.9368548 36.64556924 5.9368548 36.64556924 3 39 C0.375 38.625 0.375 38.625 -2 38 C-2 36.02 -2 34.04 -2 32 C0.375 31.375 0.375 31.375 3 31 C3.66 31.66 4.32 32.32 5 33 C7.26252298 33.43361729 7.26252298 33.43361729 9.8125 33.4375 C10.66457031 33.47746094 11.51664063 33.51742187 12.39453125 33.55859375 C15.239596 33.2349996 15.239596 33.2349996 16.9921875 30.5234375 C21.83324798 26.46197637 27.18991808 27.21714133 33.3125 27.1875 C34.53001953 27.16236328 35.74753906 27.13722656 37.00195312 27.11132812 C40.00162687 27.05251099 42.99984298 27.01618961 46 27 C43.39636449 23.92469138 41.91074375 22.17021251 37.87792969 21.41650391 C36.73743164 21.43632324 35.59693359 21.45614258 34.421875 21.4765625 C33.17921875 21.48816406 31.9365625 21.49976562 30.65625 21.51171875 C28.72265625 21.56779297 28.72265625 21.56779297 26.75 21.625 C25.44546875 21.63917969 24.1409375 21.65335938 22.796875 21.66796875 C17.01804999 21.20975277 17.01804999 21.20975277 12 23 C10.33382885 23.04063832 8.66611905 23.042721 7 23 C6.375 20.625 6.375 20.625 6 18 C6.66 17.34 7.32 16.68 8 16 C10.625 16.375 10.625 16.375 13 17 C13 17.66 13 18.32 13 19 C25.375 18.505 25.375 18.505 38 18 C37.01 16.68 36.02 15.36 35 14 C35 13.34 35 12.68 35 12 C33.98679688 12.06960937 32.97359375 12.13921875 31.9296875 12.2109375 C21.1003759 12.72931891 21.1003759 12.72931891 17.984375 10.6640625 C17.53578125 10.11492187 17.0871875 9.56578125 16.625 9 C14.39593671 5.84301 14.39593671 5.84301 11.7265625 5.53125 C9.38742942 5.50173413 7.29094471 5.5234835 5 6 C4.34 6.66 3.68 7.32 3 8 C0.375 7.625 0.375 7.625 -2 7 C-2.125 4.625 -2.125 4.625 -2 2 C-1.34 1.34 -0.68 0.68 0 0 Z " fill="#E5633C" transform="translate(37,105)"/>
<path d="M0 0 C3.11826219 1.23560682 5.8473691 2.66262908 8.73413086 4.34375 C16.29589959 8.94992347 16.29589959 8.94992347 24.81640625 10.125 C30.00685762 8.46470034 34.78442628 5.8561681 39.5625 3.265625 C42.72653681 1.56729947 45.8790711 0.34062732 49.33203125 -0.6796875 C53.02512578 2.57136649 55.10090399 6.27152658 57.265625 10.61328125 C57.62543961 11.31874588 57.98525421 12.02421051 58.35597229 12.75105286 C59.50115421 14.99967246 60.63571222 17.25344536 61.76953125 19.5078125 C62.8994754 21.73846769 64.03162715 23.96798632 65.16470337 26.197052 C65.89289223 27.62987334 66.6197816 29.06335592 67.3453064 30.49752808 C69.62346052 34.98616442 71.99458494 39.40257715 74.53930664 43.74731445 C75.33203125 45.3203125 75.33203125 45.3203125 75.33203125 47.3203125 C76.17378906 47.29710937 77.01554688 47.27390625 77.8828125 47.25 C91.42175157 47.05317223 104.84696114 48.20740944 118.33203125 49.3203125 C118.19116211 51.12646484 118.19116211 51.12646484 117.33203125 53.3203125 C114.87719727 54.90087891 114.87719727 54.90087891 111.5859375 56.421875 C110.99247025 56.69988953 110.39900299 56.97790405 109.78755188 57.26434326 C107.83032231 58.17444417 105.86354708 59.06102892 103.89453125 59.9453125 C102.5229092 60.5710386 101.15132761 61.19685336 99.77978516 61.82275391 C33.90488132 91.66680869 33.90488132 91.66680869 3.51953125 82.8203125 C2.88486938 82.63880646 2.25020752 82.45730042 1.59631348 82.27029419 C-20.4011912 75.97827703 -40.93846068 67.29301725 -61.63179016 57.62956238 C-64.94138032 56.08948458 -68.26372366 54.63857776 -71.66796875 53.3203125 C-71.66796875 52.0003125 -71.66796875 50.6803125 -71.66796875 49.3203125 C-57.31540304 48.07557378 -43.08031534 46.95900019 -28.66796875 47.3203125 C-28.26505615 46.0209375 -28.26505615 46.0209375 -27.85400391 44.6953125 C-26.69192133 41.38847233 -25.30632955 38.42825939 -23.69140625 35.3203125 C-23.10649414 34.19157715 -22.52158203 33.0628418 -21.91894531 31.89990234 C-21.29403013 30.70649077 -20.66869775 29.51329757 -20.04296875 28.3203125 C-19.72871948 27.71825989 -19.41447021 27.11620728 -19.09069824 26.49591064 C-4.6423838 -1.18268636 -4.6423838 -1.18268636 0 0 Z M-2.66796875 1.3203125 C-6.16728446 5.35552398 -8.5126015 9.55428578 -10.890625 14.2890625 C-11.470756 15.4259552 -11.470756 15.4259552 -12.06260681 16.58581543 C-13.29064046 18.99460595 -14.51090658 21.4072235 -15.73046875 23.8203125 C-16.95496718 26.23267803 -18.18110217 28.64419417 -19.40904236 31.05480957 C-20.17043563 32.55062532 -20.92963343 34.04756129 -21.68629456 35.54577637 C-23.18455969 38.49802722 -24.69585301 41.36594482 -26.42358398 44.19335938 C-27.83629522 46.19731818 -27.83629522 46.19731818 -27.66796875 48.3203125 C-29.30995239 48.40333618 -29.30995239 48.40333618 -30.98510742 48.48803711 C-35.05740716 48.69492478 -39.12944219 48.90667475 -43.20141602 49.11987305 C-44.96176449 49.21136388 -46.72218147 49.30154682 -48.48266602 49.39038086 C-51.01728269 49.51850749 -53.5516135 49.65137975 -56.0859375 49.78515625 C-56.86946091 49.82374252 -57.65298431 49.8623288 -58.46025085 49.90208435 C-62.27971112 50.10825733 -65.94239165 50.43512316 -69.66796875 51.3203125 C-66.29536324 54.10559856 -62.61151398 55.88990501 -58.65625 57.68359375 C-57.62651314 58.15529243 -57.62651314 58.15529243 -56.57597351 58.63652039 C-55.11875911 59.30207994 -53.66037988 59.96509427 -52.20092773 60.62573242 C-50.02889897 61.61084717 -47.86296979 62.60849548 -45.69726562 63.60742188 C-31.86570123 69.93071002 -17.73370371 74.91312231 -3.10546875 79.0703125 C-2.10451172 79.36035156 -1.10355469 79.65039062 -0.07226562 79.94921875 C1.86719439 80.50772203 3.80934671 81.05698241 5.75439453 81.59570312 C7.88543562 82.19476828 10.00013817 82.85162267 12.109375 83.5234375 C23.93059437 86.31487411 35.14636928 83.88037461 46.45703125 80.3203125 C47.82873998 79.90250425 49.20065095 79.48535944 50.57275391 79.06884766 C73.36329475 72.07694915 94.74526101 62.32884855 116.33203125 52.3203125 C116.00203125 51.6603125 115.67203125 51.0003125 115.33203125 50.3203125 C101.80203125 49.6603125 88.27203125 49.0003125 74.33203125 48.3203125 C73.34203125 45.8453125 73.34203125 45.8453125 72.33203125 43.3203125 C71.74511828 42.08823659 71.14036979 40.86446108 70.51611328 39.65087891 C70.16880157 38.97312408 69.82148987 38.29536926 69.46365356 37.59707642 C69.09279633 36.87925995 68.72193909 36.16144348 68.33984375 35.421875 C67.95263153 34.66868988 67.56541931 33.91550476 67.16647339 33.13949585 C66.34888598 31.55044514 65.53018802 29.96196539 64.71044922 28.37402344 C63.46552361 25.9617679 62.22468116 23.54744585 60.984375 21.1328125 C60.1864412 19.58320803 59.38827172 18.0337249 58.58984375 16.484375 C58.22303497 15.77060699 57.8562262 15.05683899 57.478302 14.32144165 C55.20342303 9.92075945 52.81738523 5.60581586 50.33203125 1.3203125 C45.93100607 1.74426447 42.85916365 2.97879077 39.08227539 5.25585938 C33.05939454 8.87539043 27.73370672 11.60959086 20.5234375 11.12890625 C14.87157733 9.6969172 9.87693317 6.98377019 4.80078125 4.16796875 C2.08552488 2.72166665 0.24313534 1.94804921 -2.66796875 1.3203125 Z " fill="#4F4C4D" transform="translate(112.66796875,30.6796875)"/>
<path d="M0 0 C-2.63062106 6.40070901 -9.96782038 10.98391019 -16 14 C-20.69733904 15.47630656 -26.12156514 15.50942948 -31 15 C-31.66 14.34 -32.32 13.68 -33 13 C-23.14232706 4.70370788 -13.13415126 -0.27945003 0 0 Z " fill="#FDF4F2" transform="translate(184,121)"/>
<path d="M0 0 C12.00616086 0.25997592 22.6430696 4.42110863 32 12 C32.495 12.99 32.495 12.99 33 14 C26.86265686 16.04578105 20.04406212 15.72491629 14.0859375 13.18359375 C8.51498489 10.0225476 2.48111797 6.09373479 0 0 Z " fill="#FDF5F3" transform="translate(88,121)"/>
<path d="M0 0 C4.20728042 -0.72799492 8.48717416 -0.55560966 12.75 -0.5625 C14.52117187 -0.61760742 14.52117187 -0.61760742 16.328125 -0.67382812 C24.95298176 -0.71753517 24.95298176 -0.71753517 27.98144531 1.35791016 C29.36921729 2.86214789 30.68878023 4.42858506 32 6 C34.65366007 6.78497087 34.65366007 6.78497087 37.25 6.5 C38.10078125 6.4690625 38.9515625 6.438125 39.828125 6.40625 C42.20297095 6.17372397 42.20297095 6.17372397 44 4 C47.53571429 4.53571429 47.53571429 4.53571429 49 6 C49.04063832 7.66617115 49.042721 9.33388095 49 11 C46.625 11.625 46.625 11.625 44 12 C43.34 11.34 42.68 10.68 42 10 C39.52931954 9.73325397 37.08940148 9.68557068 34.60546875 9.63671875 C32 9 32 9 29.76416016 6.50439453 C26.3452354 3.40676778 24.71711919 3.35308968 20.16796875 3.29296875 C18.87568359 3.26396484 17.58339844 3.23496094 16.25195312 3.20507812 C14.89713781 3.1986898 13.54231987 3.19283712 12.1875 3.1875 C10.8131116 3.16434252 9.43875856 3.13897455 8.06445312 3.11132812 C4.70934485 3.05246658 1.35554126 3.01617663 -2 3 C-1.34 2.01 -0.68 1.02 0 0 Z " fill="#8D9FAE" transform="translate(188,132)"/>
<path d="M0 0 C1.24716797 0.01611328 2.49433594 0.03222656 3.77929688 0.04882812 C5.07287109 0.09072266 6.36644531 0.13261719 7.69921875 0.17578125 C9.01212891 0.19833984 10.32503906 0.22089844 11.67773438 0.24414062 C14.91522005 0.303004 18.15038875 0.38519321 21.38671875 0.48828125 C21.88171875 1.47828125 21.88171875 1.47828125 22.38671875 2.48828125 C21.53440674 2.49239014 20.68209473 2.49649902 19.80395508 2.50073242 C16.62576527 2.52778545 13.44888583 2.57694555 10.27124023 2.64086914 C8.89896444 2.66399103 7.52651266 2.67843128 6.15405273 2.68383789 C4.17537404 2.6931679 2.19695251 2.73685144 0.21875 2.78125 C-0.97000732 2.79696045 -2.15876465 2.8126709 -3.38354492 2.82885742 C-7.47280791 3.66377309 -8.87634828 5.43336437 -11.61328125 8.48828125 C-14.21875 9.125 -14.21875 9.125 -16.80078125 9.17578125 C-20.67642645 9.13385049 -20.67642645 9.13385049 -23.61328125 11.48828125 C-26.23828125 11.11328125 -26.23828125 11.11328125 -28.61328125 10.48828125 C-28.61328125 8.50828125 -28.61328125 6.52828125 -28.61328125 4.48828125 C-26.23828125 3.86328125 -26.23828125 3.86328125 -23.61328125 3.48828125 C-22.95328125 4.14828125 -22.29328125 4.80828125 -21.61328125 5.48828125 C-19.35075827 5.92189854 -19.35075827 5.92189854 -16.80078125 5.92578125 C-15.94871094 5.96574219 -15.09664062 6.00570312 -14.21875 6.046875 C-11.36146114 5.70106471 -11.36146114 5.70106471 -9.36376953 2.98388672 C-5.96987467 -0.095502 -4.50777652 -0.10291727 0 0 Z " fill="#8195A5" transform="translate(63.61328125,132.51171875)"/>
<path d="M0 0 C3.53571429 0.53571429 3.53571429 0.53571429 5 2 C6.5617319 2.0794101 8.12452034 2.13843786 9.6875 2.1875 C14.52679969 2.59020618 14.52679969 2.59020618 16.57421875 4.36328125 C17.00347656 4.90339844 17.43273437 5.44351563 17.875 6 C19.907199 8.47398139 20.76335375 8.95680512 23.99609375 9.546875 C26.15770942 9.67927078 28.32285072 9.76491293 30.48828125 9.796875 C31.31714844 9.86390625 32.14601562 9.9309375 33 10 C33.495 10.99 33.495 10.99 34 12 C21.36383159 12.93473027 21.36383159 12.93473027 18.05078125 10.6640625 C17.15768744 9.57392507 16.28422957 8.46733127 15.43359375 7.34375 C13.42249034 5.45868304 11.96443392 5.53430564 9.25 5.5 C5.69011445 5.64193297 5.69011445 5.64193297 3 8 C0.375 7.625 0.375 7.625 -2 7 C-2.125 4.625 -2.125 4.625 -2 2 C-1.34 1.34 -0.68 0.68 0 0 Z " fill="#7A8FA1" transform="translate(37,105)"/>
<path d="M0 0 C1.32 0.66 2.64 1.32 4 2 C4 3.65 4 5.3 4 7 C1.625 7.625 1.625 7.625 -1 8 C-1.66 7.34 -2.32 6.68 -3 6 C-6.07192417 5.36103977 -8.92782012 5.36764737 -12 6 C-13.48853013 7.31942829 -13.48853013 7.31942829 -14.6875 9 C-16.92402928 11.72997557 -17.86141488 11.98413504 -21.48046875 12.3984375 C-25.00385102 12.37723359 -28.48658778 12.25989625 -32 12 C-31.67 11.34 -31.34 10.68 -31 10 C-29.10851124 9.84703357 -27.20995727 9.77800675 -25.3125 9.75 C-20.95452412 9.58870478 -20.95452412 9.58870478 -17.22265625 7.640625 C-16.32944194 6.55323366 -15.44388788 5.45950123 -14.56640625 4.359375 C-11.86330225 2.01353911 -8.72212547 2.26676729 -5.26953125 2.203125 C-2.71745264 2.15708773 -2.71745264 2.15708773 0 0 Z " fill="#7D92A3" transform="translate(233,105)"/>
<path d="M0 0 C4.95 0 9.9 0 15 0 C14 4 14 4 11.37060547 5.64404297 C10.21447754 6.17143066 9.05834961 6.69881836 7.8671875 7.2421875 C7.2382962 7.5330423 6.60940491 7.82389709 5.9614563 8.12356567 C3.93859884 9.05442352 1.90704995 9.96441386 -0.125 10.875 C-1.43937757 11.47921843 -2.75318637 12.08467577 -4.06640625 12.69140625 C-10.75483566 15.76183469 -17.5033276 18.6964648 -24.3046875 21.5078125 C-25.51882324 22.01199707 -26.73295898 22.51618164 -27.98388672 23.03564453 C-31 24 -31 24 -34 23 C-33.34741211 22.71390869 -32.69482422 22.42781738 -32.02246094 22.13305664 C-20.5006498 17.0794006 -8.98234722 12.01782471 2.5 6.875 C3.34723633 6.49738525 4.19447266 6.11977051 5.06738281 5.73071289 C8.79264967 4.26988447 8.79264967 4.26988447 12 2 C8.04 1.67 4.08 1.34 0 1 C0 0.67 0 0.34 0 0 Z " fill="#4A4748" transform="translate(216,80)"/>
<path d="M0 0 C2.625 0.375 2.625 0.375 5 1 C5 1.66 5 2.32 5 3 C13.58 3 22.16 3 31 3 C31.495 3.99 31.495 3.99 32 5 C30.78098999 5.03758423 30.78098999 5.03758423 29.53735352 5.07592773 C25.87889248 5.19149118 22.22071472 5.31439584 18.5625 5.4375 C17.28310547 5.47681641 16.00371094 5.51613281 14.68554688 5.55664062 C13.47060547 5.59853516 12.25566406 5.64042969 11.00390625 5.68359375 C9.87799072 5.72025146 8.7520752 5.75690918 7.59204102 5.79467773 C5.07146559 5.71218045 5.07146559 5.71218045 4 7 C2.33382885 7.04063832 0.66611905 7.042721 -1 7 C-1.625 4.625 -1.625 4.625 -2 2 C-1.34 1.34 -0.68 0.68 0 0 Z " fill="#8397A7" transform="translate(45,121)"/>
<path d="M0 0 C2.475 0.495 2.475 0.495 5 1 C6.125 4.75 6.125 4.75 5 7 C3.02 7 1.04 7 -1 7 C-1 6.34 -1 5.68 -1 5 C-9.91 5 -18.82 5 -28 5 C-27.67 4.34 -27.34 3.68 -27 3 C-18.42 3 -9.84 3 -1 3 C-0.67 2.01 -0.34 1.02 0 0 Z " fill="#8D9FAE" transform="translate(223,121)"/>
<path d="M0 0 C0.66 0.66 1.32 1.32 2 2 C1.00145996 2.05534912 0.00291992 2.11069824 -1.02587891 2.16772461 C-4.74970336 2.37501329 -8.47327054 2.58664826 -12.19677734 2.79956055 C-13.80478387 2.89090618 -15.41285676 2.98109142 -17.02099609 3.07006836 C-19.33970496 3.19856647 -21.6581388 3.33131058 -23.9765625 3.46484375 C-24.68930328 3.50343002 -25.40204407 3.5420163 -26.13638306 3.58177185 C-30.15056521 3.81761181 -34.04719767 4.26189122 -38 5 C-38.33 4.01 -38.66 3.02 -39 2 C-34.93818315 1.65799056 -30.87546604 1.32805181 -26.8125 1 C-25.68134766 0.90460938 -24.55019531 0.80921875 -23.38476562 0.7109375 C-6.7900889 -0.61285438 -6.7900889 -0.61285438 0 0 Z " fill="#686666" transform="translate(80,78)"/>
<path d="M0 0 C0.33 0.33 0.66 0.66 1 1 C2.51469448 1.23192865 4.03754562 1.41215238 5.5625 1.5625 C6.38878906 1.64628906 7.21507812 1.73007813 8.06640625 1.81640625 C8.70449219 1.87699219 9.34257813 1.93757812 10 2 C10 2.33 10 2.66 10 3 C8.741875 3.103125 7.48375 3.20625 6.1875 3.3125 C2.62535802 3.73120792 1.46899007 4.41343898 -1 7 C-3.6875 6.6875 -3.6875 6.6875 -6 6 C-6 4.02 -6 2.04 -6 0 C-3.49749232 -1.25125384 -2.59701335 -0.83774624 0 0 Z " fill="#778D9F" transform="translate(41,137)"/>
<path d="M0 0 C2.125 0.9375 2.125 0.9375 4 2 C4 3.65 4 5.3 4 7 C1.625 7.625 1.625 7.625 -1 8 C-1.66 7.34 -2.32 6.68 -3 6 C-5.20250992 5.53993654 -5.20250992 5.53993654 -7.625 5.375 C-8.44226563 5.30023438 -9.25953125 5.22546875 -10.1015625 5.1484375 C-10.72804687 5.09945312 -11.35453125 5.05046875 -12 5 C-12 4.67 -12 4.34 -12 4 C-9.03 4 -6.06 4 -3 4 C-2.67 3.01 -2.34 2.02 -2 1 C-1.34 0.67 -0.68 0.34 0 0 Z " fill="#6A8295" transform="translate(233,105)"/>
<path d="M0 0 C-0.33 1.65 -0.66 3.3 -1 5 C-2.32 4.67 -3.64 4.34 -5 4 C-5.33 2.68 -5.66 1.36 -6 0 C-3.50907189 -1.24546405 -2.58919267 -0.7767578 0 0 Z " fill="#ACBAC4" transform="translate(41,137)"/>
<path d="M0 0 C1.32 0.66 2.64 1.32 4 2 C3.34 3.32 2.68 4.64 2 6 C1.01 6 0.02 6 -1 6 C-1 5.01 -1 4.02 -1 3 C-1.66 2.67 -2.32 2.34 -3 2 C-2.01 1.34 -1.02 0.68 0 0 Z " fill="#A8B7C2" transform="translate(233,105)"/>
<path d="M0 0 C2.125 0.375 2.125 0.375 4 1 C3.67 2.65 3.34 4.3 3 6 C1.0625 5.6875 1.0625 5.6875 -1 5 C-1.33 4.01 -1.66 3.02 -2 2 C-1.34 1.34 -0.68 0.68 0 0 Z " fill="#AFBCC6" transform="translate(37,105)"/>
<path d="M0 0 C2.83833554 1.13533421 4.80962228 2.29083424 7.125 4.25 C6.135 4.745 6.135 4.745 5.125 5.25 C4.361875 4.755 3.59875 4.26 2.8125 3.75 C0.22299365 1.96349413 0.22299365 1.96349413 -2.6875 2.5625 C-3.409375 2.789375 -4.13125 3.01625 -4.875 3.25 C-4.875 2.26 -4.875 1.27 -4.875 0.25 C-2.875 -0.75 -2.875 -0.75 0 0 Z " fill="#585556" transform="translate(112.875,30.75)"/>
<path d="M0 0 C0.66 0 1.32 0 2 0 C2.33 0.99 2.66 1.98 3 3 C1.8125 4.5625 1.8125 4.5625 0 6 C-2.6875 5.6875 -2.6875 5.6875 -5 5 C-4.67 3.68 -4.34 2.36 -4 1 C-3.67 1.66 -3.34 2.32 -3 3 C-2.01 3.33 -1.02 3.66 0 4 C0 2.68 0 1.36 0 0 Z " fill="#6D8598" transform="translate(40,107)"/>
<path d="M0 0 C1.65 0 3.3 0 5 0 C5 1.32 5 2.64 5 4 C3.68 4.33 2.36 4.66 1 5 C0.67 3.35 0.34 1.7 0 0 Z " fill="#ADBAC5" transform="translate(43,123)"/>
<path d="M0 0 C4.95 0 9.9 0 15 0 C15 0.99 15 1.98 15 3 C14.01 2.67 13.02 2.34 12 2 C9.94106379 1.77674186 7.87766347 1.59294241 5.8125 1.4375 C4.72582031 1.35371094 3.63914063 1.26992187 2.51953125 1.18359375 C1.68808594 1.12300781 0.85664063 1.06242187 0 1 C0 0.67 0 0.34 0 0 Z " fill="#3C3939" transform="translate(216,80)"/>
</svg>
